# xmcd CD database file
#
# Track frame offsets:
#	150
#	17585
#	40083
#	61523
#	78145
#	92883
#	112405
#	137070
#	158365
#	175465
#	199968
#	218460
#	240305
#	258088
#	278755
#	302028
#	321940
#	339321
#
# Disc length: 4783 seconds
#
# Revision: 0
# Processed by: cddbd v1.5.2PL0 Copyright (c) Steve Scherf et al.
# Submitted via: CDex 2.05
#
DISCID=e812ad12
DTITLE=Duke Jordan Trio - Complete 1954 -62 Recordings
DYEAR=1900
DGENRE=Jazz
TTITLE0=Just one of those things
TTITLE1=Embraceable you
TTITLE2=Jordu (aka Minor Escamp)
TTITLE3=Scotch Blues
TTITLE4=Confirmation
TTITLE5=Darn that dream
TTITLE6=They can't take that away from me
TTITLE7=Wait and see
TTITLE8=Just one of those things (alt take)
TTITLE9=Embraceable you (alt take)
TTITLE10=Darn that dream (alt take)
TTITLE11=Forecast
TTITLE12=Sultry eye
TTITLE13=They can't take that away from me #2
TTITLE14=A night in Tunisia
TTITLE15=Summertime
TTITLE16=I should care
TTITLE17=No problem
EXTD=
EXTT0=
EXTT1=
EXTT2=
EXTT3=
EXTT4=
EXTT5=
EXTT6=
EXTT7=
EXTT8=
EXTT9=
EXTT10=
EXTT11=
EXTT12=
EXTT13=
EXTT14=
EXTT15=
EXTT16=
EXTT17=
PLAYORDER=
